{
	"asset":{
		"generator":"Khronos glTF Blender I/O v4.3.47",
		"version":"2.0"
	},
	"scene":0,
	"scenes":[
		{
			"name":"Scene",
			"nodes":[
				0
			]
		}
	],
	"nodes":[
		{
			"mesh":0,
			"name":"Cube"
		}
	],
	"meshes":[
		{
			"name":"Cube.001",
			"primitives":[
				{
					"attributes":{
						"_VIDX":0,
						"POSITION":1,
						"NORMAL":2,
						"TEXCOORD_0":3,
						"TANGENT":4
					},
					"indices":5
				}
			]
		}
	],
	"accessors":[
		{
			"bufferView":0,
			"componentType":5126,
			"count":36,
			"type":"SCALAR"
		},
		{
			"bufferView":1,
			"componentType":5126,
			"count":36,
			"max":[
				1,
				1,
				1
			],
			"min":[
				0,
				0,
				0
			],
			"type":"VEC3"
		},
		{
			"bufferView":2,
			"componentType":5126,
			"count":36,
			"type":"VEC3"
		},
		{
			"bufferView":3,
			"componentType":5126,
			"count":36,
			"type":"VEC2"
		},
		{
			"bufferView":4,
			"componentType":5126,
			"count":36,
			"type":"VEC4"
		},
		{
			"bufferView":5,
			"componentType":5123,
			"count":36,
			"type":"SCALAR"
		}
	],
	"bufferViews":[
		{
			"buffer":0,
			"byteLength":144,
			"byteOffset":0,
			"target":34962
		},
		{
			"buffer":0,
			"byteLength":432,
			"byteOffset":144,
			"target":34962
		},
		{
			"buffer":0,
			"byteLength":432,
			"byteOffset":576,
			"target":34962
		},
		{
			"buffer":0,
			"byteLength":288,
			"byteOffset":1008,
			"target":34962
		},
		{
			"buffer":0,
			"byteLength":576,
			"byteOffset":1296,
			"target":34962
		},
		{
			"buffer":0,
			"byteLength":72,
			"byteOffset":1872,
			"target":34963
		}
	],
	"buffers":[
		{
			"byteLength":1944,
			"uri":"data:application/octet-stream;base64,"
		}
	]
}
