{
	"asset":{
		"generator":"Khronos glTF Blender I/O v4.3.47",
		"version":"2.0"
	},
	"scene":0,
	"scenes":[
		{
			"name":"Scene",
			"nodes":[
				0
			]
		}
	],
	"nodes":[
		{
			"mesh":0,
			"name":"Plane"
		}
	],
	"meshes":[
		{
			"name":"Plane",
			"primitives":[
				{
					"attributes":{
						"_VIDX":0,
						"POSITION":1,
						"NORMAL":2,
						"TEXCOORD_0":3,
						"TANGENT":4
					},
					"indices":5
				}
			]
		}
	],
	"accessors":[
		{
			"bufferView":0,
			"componentType":5126,
			"count":12,
			"type":"SCALAR"
		},
		{
			"bufferView":1,
			"componentType":5126,
			"count":12,
			"max":[
				1,
				1,
				1
			],
			"min":[
				0,
				0,
				0
			],
			"type":"VEC3"
		},
		{
			"bufferView":2,
			"componentType":5126,
			"count":12,
			"type":"VEC3"
		},
		{
			"bufferView":3,
			"componentType":5126,
			"count":12,
			"type":"VEC2"
		},
		{
			"bufferView":4,
			"componentType":5126,
			"count":12,
			"type":"VEC4"
		},
		{
			"bufferView":5,
			"componentType":5123,
			"count":12,
			"type":"SCALAR"
		}
	],
	"bufferViews":[
		{
			"buffer":0,
			"byteLength":48,
			"byteOffset":0,
			"target":34962
		},
		{
			"buffer":0,
			"byteLength":144,
			"byteOffset":48,
			"target":34962
		},
		{
			"buffer":0,
			"byteLength":144,
			"byteOffset":192,
			"target":34962
		},
		{
			"buffer":0,
			"byteLength":96,
			"byteOffset":336,
			"target":34962
		},
		{
			"buffer":0,
			"byteLength":192,
			"byteOffset":432,
			"target":34962
		},
		{
			"buffer":0,
			"byteLength":24,
			"byteOffset":624,
			"target":34963
		}
	],
	"buffers":[
		{
			"byteLength":648,
			"uri":"data:application/octet-stream;base64,"
		}
	]
}
