{
	"asset":{
		"generator":"Khronos glTF Blender I/O v4.3.47",
		"version":"2.0"
	},
	"scene":0,
	"scenes":[
		{
			"name":"Scene",
			"nodes":[
				0
			]
		}
	],
	"nodes":[
		{
			"mesh":0,
			"name":"Suzanne"
		}
	],
	"meshes":[
		{
			"name":"Suzanne.001",
			"primitives":[
				{
					"attributes":{
						"POSITION":0,
						"NORMAL":1,
						"TEXCOORD_0":2
					},
					"indices":3
				}
			]
		}
	],
	"accessors":[
		{
			"bufferView":0,
			"componentType":5126,
			"count":1970,
			"max":[
				1.3671875,
				1.104189157485962,
				0.6089656949043274
			],
			"min":[
				-1.3671875,
				-0.5989358425140381,
				-1.3597843647003174
			],
			"type":"VEC3"
		},
		{
			"bufferView":1,
			"componentType":5126,
			"count":1970,
			"type":"VEC3"
		},
		{
			"bufferView":2,
			"componentType":5126,
			"count":1970,
			"type":"VEC2"
		},
		{
			"bufferView":3,
			"componentType":5123,
			"count":2904,
			"type":"SCALAR"
		}
	],
	"bufferViews":[
		{
			"buffer":0,
			"byteLength":23640,
			"byteOffset":0,
			"target":34962
		},
		{
			"buffer":0,
			"byteLength":23640,
			"byteOffset":23640,
			"target":34962
		},
		{
			"buffer":0,
			"byteLength":15760,
			"byteOffset":47280,
			"target":34962
		},
		{
			"buffer":0,
			"byteLength":5808,
			"byteOffset":63040,
			"target":34963
		}
	],
	"buffers":[
		{
			"byteLength":68848,
			"uri":"data:application/octet-stream;base64,"
		}
	]
}
