{
	"asset":{
		"generator":"Khronos glTF Blender I/O v4.3.47",
		"version":"2.0"
	},
	"scene":0,
	"scenes":[
		{
			"name":"Scene",
			"nodes":[
				0
			]
		}
	],
	"nodes":[
		{
			"mesh":0,
			"name":"Suzanne"
		}
	],
	"meshes":[
		{
			"name":"Suzanne",
			"primitives":[
				{
					"attributes":{
						"POSITION":0,
						"NORMAL":1,
						"TEXCOORD_0":2,
						"TANGENT":3
					},
					"indices":4
				}
			]
		}
	],
	"accessors":[
		{
			"bufferView":0,
			"componentType":5126,
			"count":2865,
			"max":[
				1.3671875,
				0.8515625,
				0.984375
			],
			"min":[
				-1.3671875,
				-0.8515625,
				-0.984375
			],
			"type":"VEC3"
		},
		{
			"bufferView":1,
			"componentType":5126,
			"count":2865,
			"type":"VEC3"
		},
		{
			"bufferView":2,
			"componentType":5126,
			"count":2865,
			"type":"VEC2"
		},
		{
			"bufferView":3,
			"componentType":5126,
			"count":2865,
			"type":"VEC4"
		},
		{
			"bufferView":4,
			"componentType":5123,
			"count":2901,
			"type":"SCALAR"
		}
	],
	"bufferViews":[
		{
			"buffer":0,
			"byteLength":34380,
			"byteOffset":0,
			"target":34962
		},
		{
			"buffer":0,
			"byteLength":34380,
			"byteOffset":34380,
			"target":34962
		},
		{
			"buffer":0,
			"byteLength":22920,
			"byteOffset":68760,
			"target":34962
		},
		{
			"buffer":0,
			"byteLength":45840,
			"byteOffset":91680,
			"target":34962
		},
		{
			"buffer":0,
			"byteLength":5802,
			"byteOffset":137520,
			"target":34963
		}
	],
	"buffers":[
		{
			"byteLength":143324,
			"uri":"data:application/octet-stream;base64,"
		}
	]
}
